<svg xmlns="http://www.w3.org/2000/svg" viewBox="0 0 64 64">
  <!-- HardwareLab favicon — the CPU tile from the model library -->
  <rect width="64" height="64" rx="14" fill="#FFFFFF"/>
  <rect x="13" y="13" width="38" height="38" rx="3" fill="#1D2024"/>
  <rect x="18" y="18" width="28" height="28" rx="2.5" fill="#C9C9C6"/>
  <rect x="18" y="18" width="28" height="7" rx="2.5" fill="#E4E4E1"/>
  <rect x="26" y="26" width="12" height="12" rx="1" fill="#9C9C99"/>
  <circle cx="16.5" cy="16.5" r="1.4" fill="#D9A741"/>
  <rect x="16" y="9.4" width="2.4" height="3" rx="0.6" fill="#D9A741"/>
  <rect x="22" y="9.4" width="2.4" height="3" rx="0.6" fill="#D9A741"/>
  <rect x="28" y="9.4" width="2.4" height="3" rx="0.6" fill="#D9A741"/>
  <rect x="34" y="9.4" width="2.4" height="3" rx="0.6" fill="#D9A741"/>
  <rect x="40" y="9.4" width="2.4" height="3" rx="0.6" fill="#D9A741"/>
  <rect x="46" y="9.4" width="2.4" height="3" rx="0.6" fill="#D9A741"/>
  <rect x="16" y="51.6" width="2.4" height="3" rx="0.6" fill="#D9A741"/>
  <rect x="22" y="51.6" width="2.4" height="3" rx="0.6" fill="#D9A741"/>
  <rect x="28" y="51.6" width="2.4" height="3" rx="0.6" fill="#D9A741"/>
  <rect x="34" y="51.6" width="2.4" height="3" rx="0.6" fill="#D9A741"/>
  <rect x="40" y="51.6" width="2.4" height="3" rx="0.6" fill="#D9A741"/>
  <rect x="46" y="51.6" width="2.4" height="3" rx="0.6" fill="#D9A741"/>
  <rect x="9.4" y="16" width="3" height="2.4" rx="0.6" fill="#D9A741"/>
  <rect x="9.4" y="22" width="3" height="2.4" rx="0.6" fill="#D9A741"/>
  <rect x="9.4" y="28" width="3" height="2.4" rx="0.6" fill="#D9A741"/>
  <rect x="9.4" y="34" width="3" height="2.4" rx="0.6" fill="#D9A741"/>
  <rect x="9.4" y="40" width="3" height="2.4" rx="0.6" fill="#D9A741"/>
  <rect x="9.4" y="46" width="3" height="2.4" rx="0.6" fill="#D9A741"/>
  <rect x="51.6" y="16" width="3" height="2.4" rx="0.6" fill="#D9A741"/>
  <rect x="51.6" y="22" width="3" height="2.4" rx="0.6" fill="#D9A741"/>
  <rect x="51.6" y="28" width="3" height="2.4" rx="0.6" fill="#D9A741"/>
  <rect x="51.6" y="34" width="3" height="2.4" rx="0.6" fill="#D9A741"/>
  <rect x="51.6" y="40" width="3" height="2.4" rx="0.6" fill="#D9A741"/>
  <rect x="51.6" y="46" width="3" height="2.4" rx="0.6" fill="#D9A741"/>
</svg>
